:SAMPLES-PER-SECOND 30
:FULLY-SPECIFIED
:DEGREES
278
root  -22.9091 6.2503 -17.3205 168.466 -2.05701 -170.506
RightUpLeg  -75.7849 -10.5776 6.06742
RightLeg  159.16 8.59433 -3.63084
RightFoot  -57.9645 5.35536 10.2571
RightToes  -6.38421 -0.0203388 -0.0593982
Spine  30.5613 0.495742 5.35502
Spine1  48.1002 0.482654 7.84239
HEad  -92.856 2.89753 8.82879
LeftShoulder1  -1.94126e-019 -3.10601e-018 -2.51263e-017
LeftArm  34.4748 -70.5117 -128.226
LeftForeArm  27.6258 -5.45934 -0.945858
LeftHand  -0.480567 -0.321276 9.86366
RightShoulder  -4.96962e-017 0 -2.36833e-017
RightArm  -4.93961 80.042 105.501
RightForeArm  51.7628 33.7686 4.48731
RightHand  -0.594441 -1.53123 -17.7515
LeftUpLeg  -81.1719 7.78383 22.7351
LeftLeg  163.075 0.920456 -0.342984
LeftFoot  -56.1807 -3.77926 -6.91284
LeftToes  -7.65347 2.03064e-006 1.83538e-008
279
root  -22.9049 6.16967 -17.3828 168.206 -2.25443 -170.648
RightUpLeg  -75.0064 -10.703 5.73272
RightLeg  159.497 8.53627 -3.54507
RightFoot  -58.7252 5.52022 10.4003
RightToes  -7.00854 -0.020566 -0.0599465
Spine  30.9617 0.71251 5.6776
Spine1  48.8239 1.37576 7.7081
HEad  -92.6212 1.15956 10.2232
LeftShoulder1  -1.94126e-019 -3.10601e-018 -2.51263e-017
LeftArm  37.1227 -70.3689 -131.159
LeftForeArm  27.5853 -5.58637 -0.968433
LeftHand  -0.477625 -0.382818 9.70448
RightShoulder  -4.96962e-017 0 -2.36833e-017
RightArm  -13.0426 80.5042 98.0677
RightForeArm  59.7215 28.7361 3.07505
RightHand  -0.661963 -1.1729 -18.1222
LeftUpLeg  -80.6713 7.64706 22.9695
LeftLeg  163.322 1.42891 -0.527132
LeftFoot  -56.7378 -3.74161 -6.76145
LeftToes  -7.56871 2.03064e-006 1.83538e-008
280
root  -22.8993 6.10322 -17.4233 168.097 -2.40245 -170.79
RightUpLeg  -74.691 -10.8891 5.51885
RightLeg  159.81 8.38625 -3.4243
RightFoot  -59.2832 5.5967 10.4237
RightToes  -6.4795 -0.0206709 -0.0603359
Spine  31.1519 0.84919 5.89146
Spine1  49.2031 1.90412 7.61444
HEad  -92.6446 -0.133519 10.7291
LeftShoulder1  -1.94126e-019 -3.10601e-018 -2.51263e-017
LeftArm  38.5664 -70.2391 -132.775
LeftForeArm  27.9342 -5.75487 -0.998447
LeftHand  -0.470093 -0.510291 9.3571
RightShoulder  -4.96962e-017 0 -2.36833e-017
RightArm  -18.6038 80.5515 92.583
RightForeArm  61.0963 24.3364 2.16703
RightHand  -0.605946 -1.71634 -18.9845
LeftUpLeg  -80.548 7.66124 23.0895
LeftLeg  163.523 1.78931 -0.653717
LeftFoot  -56.9125 -3.68011 -6.62314
LeftToes  -7.75855 2.03064e-006 1.83538e-008
281
root  -22.9079 6.05224 -17.4456 167.992 -2.53281 -170.921
RightUpLeg  -74.441 -10.9048 5.18336
RightLeg  160.03 8.30454 -3.35111
RightFoot  -59.5686 5.66155 10.4803
RightToes  -6.76752 -0.02066 -0.0605747
Spine  31.3112 0.88211 6.01533
Spine1  49.4947 2.09002 7.51467
HEad  -92.6117 -0.837939 11.03
LeftShoulder1  -1.94126e-019 -3.10601e-018 -2.51263e-017
LeftArm  39.1992 -70.2675 -133.447
LeftForeArm  28.3927 -5.92905 -1.02837
LeftHand  -0.485069 -0.668092 9.41384
RightShoulder  -4.96962e-017 0 -2.36833e-017
RightArm  -20.8789 80.4087 90.9537
RightForeArm  55.8832 20.7865 1.70191
RightHand  -0.423603 -2.7727 -18.4675
LeftUpLeg  -80.4577 7.61564 23.0211
LeftLeg  163.669 1.97986 -0.717937
LeftFoot  -57.0786 -3.64771 -6.54036
LeftToes  -7.69748 2.03064e-006 1.83538e-008
282
root  -22.911 6.01226 -17.4658 167.929 -2.65204 -171.041
RightUpLeg  -74.2247 -11.0222 4.96907
RightLeg  160.23 8.16864 -3.25887
RightFoot  -59.9123 5.70575 10.4884
RightToes  -6.74461 -0.0205396 -0.060671
Spine  31.3924 0.88064 6.02681
Spine1  49.6304 2.10378 7.40672
HEad  -92.4923 -1.09456 11.0226
LeftShoulder1  -1.94126e-019 -3.10601e-018 -2.51263e-017
LeftArm  39.313 -70.3427 -133.503
LeftForeArm  28.5486 -6.04488 -1.04925
LeftHand  -0.474942 -0.629273 9.27572
RightShoulder  -4.96962e-017 0 -2.36833e-017
RightArm  -20.9481 80.0763 91.1065
RightForeArm  51.9034 18.1619 1.38183
RightHand  -0.242707 -3.87425 -17.8534
LeftUpLeg  -80.4093 7.56835 23.0103
LeftLeg  163.781 2.14693 -0.774011
LeftFoot  -57.1605 -3.5962 -6.43464
LeftToes  -8.00349 2.03064e-006 1.83538e-008
